<?xml version="1.0" ?><svg data-name="Layer 1" id="Layer_1" viewBox="0 0 128 128" xmlns="http://www.w3.org/2000/svg"><title/><path d="M42.87,10.91a7.52,7.52,0,0,0-7.52,7.52v91.14a7.52,7.52,0,0,0,7.52,7.52H85.13a7.52,7.52,0,0,0,7.52-7.52V18.43a7.52,7.52,0,0,0-7.52-7.52Zm47.78,7.52v91.14a5.53,5.53,0,0,1-5.52,5.52H42.87a5.53,5.53,0,0,1-5.52-5.52V18.43a5.53,5.53,0,0,1,5.52-5.52H85.13A5.53,5.53,0,0,1,90.65,18.43Z"/><path d="M41.09,24.26v77a1,1,0,0,0,1,1H85.91a1,1,0,0,0,1-1v-77a1,1,0,0,0-1-1H42.09A1,1,0,0,0,41.09,24.26Zm2,1H84.91v75H43.09Z"/><path d="M59.33,19.05h9.34a1,1,0,0,0,0-2H59.33a1,1,0,0,0,0,2Z"/><path d="M54.7,19.05h0a1,1,0,1,0-1-1A1,1,0,0,0,54.71,19.05Z"/><path d="M64,104.1a4.53,4.53,0,1,0,4.53,4.52A4.53,4.53,0,0,0,64,104.1Zm0,7.05a2.53,2.53,0,1,1,2.53-2.53A2.53,2.53,0,0,1,64,111.15Z"/><path d="M71.51,48.56A8.7,8.7,0,0,0,64,53a8.7,8.7,0,0,0-7.51-4.47,9,9,0,0,0-8.77,9.27s.06,1,.06,1.06c.69,7.57,15.08,16.56,15.69,16.94A1,1,0,0,0,64,76a1,1,0,0,0,.53-.15c.61-.38,15-9.37,15.69-16.93,0-.07.06-1.06.06-1.07A9,9,0,0,0,71.51,48.56Zm6.72,10.15c-.48,5.23-10,12.35-14.23,15.08-4.26-2.73-13.75-9.85-14.23-15.09,0-.11,0-.85-.05-.87a7,7,0,0,1,6.77-7.27A6.87,6.87,0,0,1,63,55.93a1,1,0,0,0,1.94,0,6.87,6.87,0,0,1,6.54-5.37,7.05,7.05,0,0,1,6.77,7.25C78.27,57.94,78.23,58.6,78.23,58.71Z"/></svg>