<svg width="128" height="128" xmlns="http://www.w3.org/2000/svg">

 <g>
  <title>background</title>
  <rect fill="none" id="canvas_background" height="402" width="582" y="-1" x="-1"/>
 </g>
 <g>
  <title>Layer 1</title>
  <path id="svg_1" fill="#050505" d="m77,97l0,10l-4,0l0,3l-0.9,0l-2.6,0l-1.1,2.3c-0.7,1.6 -2.3,2.6 -4.1,2.6s-3.4,-1 -4.1,-2.6l-1.1,-2.3l-2.6,0l-1.5,0l0,-3l-3.7,0l-0.3,0l0,-10l26,0m1.7,-4l-28.8,0c-1.7,1 -2.9,1.7 -2.9,3.5l0,10.8c0,1.9 1.3,3.7 3.1,3.7l1.1,0c0,2 1.1,3 2.5,3l2.7,0c1.3,3 4.3,5.1 7.8,5.1c3.5,0 6.4,-2.1 7.8,-5.1l2.8,0c1.4,0 2.5,-1 2.5,-3l1.1,0c1.9,0 2.5,-1.8 2.5,-3.7l0,-10.8c0.1,-1.8 -0.6,-3.5 -2.2,-3.5l0,0z"/>
  <path id="svg_2" fill="#000000" d="m64.3,16c8.3,0 16.4,3.6 22.2,9.7c12.6,13.2 12.6,31.7 0,44.3c-6,6 -9.2,12 -10.8,17l-22.8,0c-1.6,-4 -4.7,-10.7 -10.9,-17c-12.6,-12.5 -12.6,-31.1 0,-44.3c6,-6.3 13.9,-9.7 22.3,-9.7m0,-4c-9.5,0 -18.5,3.9 -25.2,11c-14.1,14.8 -14.1,35.7 0.1,49.9c6.4,6.4 9.5,13.1 10.7,18.1l28.7,0c0,0 0,0.2 0,0.2c1.3,-5 4.3,-11.8 10.7,-18.2c14.2,-14.2 14.3,-35.2 0.1,-50c-6.6,-7 -15.7,-11 -25.1,-11l0,0z"/>
  <path id="svg_3" fill="#000000" d="m75.8,55.8c-0.4,-0.4 -1,-0.4 -1.4,0l-10.3,10.2l-10.4,-10.4c-0.4,-0.4 -1,-0.4 -1.4,0s-0.4,1 -0.1,1.4l10.8,10.8l0,14.1c0,0.6 0.4,1 1,1s1,-0.4 1,-1l0,-14.1l10.7,-10.7c0.4,-0.3 0.5,-1 0.1,-1.3z"/>
 </g>
</svg>