<svg width="32" height="32" xmlns="http://www.w3.org/2000/svg">

 <g>
  <title>background</title>
  <rect fill="none" id="canvas_background" height="402" width="582" y="-1" x="-1"/>
 </g>
 <g>
  <title>Layer 1</title>
  <path stroke-miterlimit="10" stroke-linejoin="round" stroke-linecap="round" stroke-width="0.5" stroke="#000000" fill="none" id="svg_2" d="m25,15c0,-4.97058 -4.02942,-9 -9,-9s-9,4.02942 -9,9c0,3.53174 2.03925,6.57977 5,8.05341l0,5.94659l2,0l0,2l4,0l0,-2l2,0l0,-5.94659c2.96075,-1.47364 5,-4.52167 5,-8.05341z" class="st0"/>
  <line stroke-miterlimit="10" stroke-linejoin="round" stroke-linecap="round" stroke-width="0.5" stroke="#000000" fill="none" id="svg_3" y2="3" y1="1" x2="16" x1="16" class="st0"/>
  <line stroke-miterlimit="10" stroke-linejoin="round" stroke-linecap="round" stroke-width="0.5" stroke="#000000" fill="none" id="svg_4" y2="6.51472" y1="5.1005" x2="7.51472" x1="6.1005" class="st0"/>
  <line stroke-miterlimit="10" stroke-linejoin="round" stroke-linecap="round" stroke-width="0.5" stroke="#000000" fill="none" id="svg_5" y2="15" y1="15" x2="4" x1="2" class="st0"/>
  <line stroke-miterlimit="10" stroke-linejoin="round" stroke-linecap="round" stroke-width="0.5" stroke="#000000" fill="none" id="svg_6" y2="15" y1="15" x2="28" x1="30" class="st0"/>
  <line stroke-miterlimit="10" stroke-linejoin="round" stroke-linecap="round" stroke-width="0.5" stroke="#000000" fill="none" id="svg_7" y2="6.51472" y1="5.1005" x2="24.48528" x1="25.89949" class="st0"/>
  <polyline stroke-miterlimit="10" stroke-linejoin="round" stroke-linecap="round" stroke-width="0.5" stroke="#000000" fill="none" id="svg_8" points="19,15 16,14 16,16 13,15   " class="st0"/>
 </g>
</svg>